<mxfile host="app.diagrams.net" agent="Mozilla/5.0 (Windows NT 10.0; Win64; x64) AppleWebKit/537.36 (KHTML, like Gecko) Chrome/129.0.0.0 Safari/537.36" version="24.7.17">
  <diagram name="Page-1" id="cfBCr9aoRWS-MYvpmUih">
    <mxGraphModel dx="1728" dy="943" grid="1" gridSize="10" guides="1" tooltips="1" connect="1" arrows="1" fold="1" page="1" pageScale="1" pageWidth="850" pageHeight="1100" math="0" shadow="0">
      <root>
        <mxCell id="0" />
        <mxCell id="1" parent="0" />
        <mxCell id="_5ELGUzq5DA-wfUolM43-58" style="edgeStyle=orthogonalEdgeStyle;rounded=0;orthogonalLoop=1;jettySize=auto;html=1;" edge="1" parent="1" source="_5ELGUzq5DA-wfUolM43-2" target="_5ELGUzq5DA-wfUolM43-14">
          <mxGeometry relative="1" as="geometry" />
        </mxCell>
        <mxCell id="_5ELGUzq5DA-wfUolM43-2" value="" style="whiteSpace=wrap;html=1;aspect=fixed;" vertex="1" parent="1">
          <mxGeometry x="70" y="110" width="150" height="150" as="geometry" />
        </mxCell>
        <mxCell id="_5ELGUzq5DA-wfUolM43-3" value="Beer" style="text;html=1;align=center;verticalAlign=middle;resizable=0;points=[];autosize=1;strokeColor=none;fillColor=none;" vertex="1" parent="1">
          <mxGeometry x="120" y="120" width="50" height="30" as="geometry" />
        </mxCell>
        <mxCell id="_5ELGUzq5DA-wfUolM43-4" value="name: varchar(255)" style="text;html=1;align=center;verticalAlign=middle;resizable=0;points=[];autosize=1;strokeColor=none;fillColor=none;" vertex="1" parent="1">
          <mxGeometry x="80" y="160" width="130" height="30" as="geometry" />
        </mxCell>
        <mxCell id="_5ELGUzq5DA-wfUolM43-5" value="description: text" style="text;html=1;align=center;verticalAlign=middle;resizable=0;points=[];autosize=1;strokeColor=none;fillColor=none;" vertex="1" parent="1">
          <mxGeometry x="90" y="190" width="110" height="30" as="geometry" />
        </mxCell>
        <mxCell id="_5ELGUzq5DA-wfUolM43-14" value="" style="whiteSpace=wrap;html=1;aspect=fixed;absoluteArcSize=0;shadow=0;" vertex="1" parent="1">
          <mxGeometry x="310" y="120" width="150" height="150" as="geometry" />
        </mxCell>
        <mxCell id="_5ELGUzq5DA-wfUolM43-15" value="" style="endArrow=none;html=1;rounded=0;exitX=0;exitY=0.25;exitDx=0;exitDy=0;entryX=1;entryY=0.25;entryDx=0;entryDy=0;" edge="1" parent="1" source="_5ELGUzq5DA-wfUolM43-2" target="_5ELGUzq5DA-wfUolM43-2">
          <mxGeometry width="50" height="50" relative="1" as="geometry">
            <mxPoint x="70" y="180" as="sourcePoint" />
            <mxPoint x="120" y="130" as="targetPoint" />
          </mxGeometry>
        </mxCell>
        <mxCell id="_5ELGUzq5DA-wfUolM43-16" value="Batch" style="text;html=1;align=center;verticalAlign=middle;resizable=0;points=[];autosize=1;strokeColor=none;fillColor=none;" vertex="1" parent="1">
          <mxGeometry x="355.04999999999995" y="120" width="50" height="30" as="geometry" />
        </mxCell>
        <mxCell id="_5ELGUzq5DA-wfUolM43-17" value="" style="endArrow=none;html=1;rounded=0;entryX=1.005;entryY=0.2;entryDx=0;entryDy=0;entryPerimeter=0;exitX=0.033;exitY=0.2;exitDx=0;exitDy=0;exitPerimeter=0;" edge="1" parent="1">
          <mxGeometry width="50" height="50" relative="1" as="geometry">
            <mxPoint x="310" y="159" as="sourcePoint" />
            <mxPoint x="455.79999999999995" y="159" as="targetPoint" />
          </mxGeometry>
        </mxCell>
        <mxCell id="_5ELGUzq5DA-wfUolM43-18" value="date: date" style="text;html=1;align=center;verticalAlign=middle;resizable=0;points=[];autosize=1;strokeColor=none;fillColor=none;" vertex="1" parent="1">
          <mxGeometry x="340.04999999999995" y="170" width="80" height="30" as="geometry" />
        </mxCell>
        <mxCell id="_5ELGUzq5DA-wfUolM43-19" value="code: varchar(50)" style="text;html=1;align=center;verticalAlign=middle;resizable=0;points=[];autosize=1;strokeColor=none;fillColor=none;" vertex="1" parent="1">
          <mxGeometry x="325" y="200" width="120" height="30" as="geometry" />
        </mxCell>
        <mxCell id="_5ELGUzq5DA-wfUolM43-21" value="description: text" style="text;html=1;align=center;verticalAlign=middle;resizable=0;points=[];autosize=1;strokeColor=none;fillColor=none;" vertex="1" parent="1">
          <mxGeometry x="330" y="230" width="110" height="30" as="geometry" />
        </mxCell>
        <mxCell id="_5ELGUzq5DA-wfUolM43-22" value="" style="whiteSpace=wrap;html=1;aspect=fixed;" vertex="1" parent="1">
          <mxGeometry x="40" y="350" width="210" height="210" as="geometry" />
        </mxCell>
        <mxCell id="_5ELGUzq5DA-wfUolM43-23" value="name: varchar(255)" style="text;html=1;align=center;verticalAlign=middle;resizable=0;points=[];autosize=1;strokeColor=none;fillColor=none;" vertex="1" parent="1">
          <mxGeometry x="75" y="430" width="130" height="30" as="geometry" />
        </mxCell>
        <mxCell id="_5ELGUzq5DA-wfUolM43-24" value="unit: varchar(50)" style="text;html=1;align=center;verticalAlign=middle;resizable=0;points=[];autosize=1;strokeColor=none;fillColor=none;" vertex="1" parent="1">
          <mxGeometry x="85" y="450" width="110" height="30" as="geometry" />
        </mxCell>
        <mxCell id="_5ELGUzq5DA-wfUolM43-25" value="unitPrice: decimal(10, 2)" style="text;html=1;align=center;verticalAlign=middle;resizable=0;points=[];autosize=1;strokeColor=none;fillColor=none;" vertex="1" parent="1">
          <mxGeometry x="70" y="470" width="150" height="30" as="geometry" />
        </mxCell>
        <mxCell id="_5ELGUzq5DA-wfUolM43-26" value="quantity: decimal(10, 2)" style="text;html=1;align=center;verticalAlign=middle;resizable=0;points=[];autosize=1;strokeColor=none;fillColor=none;" vertex="1" parent="1">
          <mxGeometry x="70" y="490" width="150" height="30" as="geometry" />
        </mxCell>
        <mxCell id="_5ELGUzq5DA-wfUolM43-27" value="amountUsed: decimal (10, 2)" style="text;html=1;align=center;verticalAlign=middle;resizable=0;points=[];autosize=1;strokeColor=none;fillColor=none;" vertex="1" parent="1">
          <mxGeometry x="60" y="510" width="180" height="30" as="geometry" />
        </mxCell>
        <mxCell id="_5ELGUzq5DA-wfUolM43-29" value="Ingredient" style="text;html=1;align=center;verticalAlign=middle;resizable=0;points=[];autosize=1;strokeColor=none;fillColor=none;fontSize=20;" vertex="1" parent="1">
          <mxGeometry x="90" y="370" width="110" height="40" as="geometry" />
        </mxCell>
        <mxCell id="_5ELGUzq5DA-wfUolM43-31" value="" style="endArrow=none;html=1;rounded=0;entryX=1;entryY=0.25;entryDx=0;entryDy=0;" edge="1" parent="1" target="_5ELGUzq5DA-wfUolM43-22">
          <mxGeometry width="50" height="50" relative="1" as="geometry">
            <mxPoint x="40" y="405" as="sourcePoint" />
            <mxPoint x="90" y="355" as="targetPoint" />
          </mxGeometry>
        </mxCell>
        <mxCell id="_5ELGUzq5DA-wfUolM43-35" value="date: date&lt;div&gt;description: text&lt;/div&gt;&lt;div&gt;user_id: int&lt;/div&gt;" style="whiteSpace=wrap;html=1;aspect=fixed;" vertex="1" parent="1">
          <mxGeometry x="330" y="380" width="150" height="150" as="geometry" />
        </mxCell>
        <mxCell id="_5ELGUzq5DA-wfUolM43-36" value="LogEntry" style="text;html=1;align=center;verticalAlign=middle;resizable=0;points=[];autosize=1;strokeColor=none;fillColor=none;" vertex="1" parent="1">
          <mxGeometry x="370" y="380" width="70" height="30" as="geometry" />
        </mxCell>
        <mxCell id="_5ELGUzq5DA-wfUolM43-48" value="url: varchar(255&lt;span style=&quot;background-color: initial;&quot;&gt;)&lt;/span&gt;&lt;div&gt;&lt;span style=&quot;background-color: initial;&quot;&gt;description: text&lt;/span&gt;&lt;/div&gt;" style="whiteSpace=wrap;html=1;aspect=fixed;" vertex="1" parent="1">
          <mxGeometry x="85" y="605" width="100" height="100" as="geometry" />
        </mxCell>
        <mxCell id="_5ELGUzq5DA-wfUolM43-50" value="" style="endArrow=none;html=1;rounded=0;entryX=0.993;entryY=0.3;entryDx=0;entryDy=0;entryPerimeter=0;exitX=0;exitY=0.25;exitDx=0;exitDy=0;" edge="1" source="_5ELGUzq5DA-wfUolM43-48" target="_5ELGUzq5DA-wfUolM43-48" parent="1">
          <mxGeometry width="50" height="50" relative="1" as="geometry">
            <mxPoint x="85" y="275" as="sourcePoint" />
            <mxPoint x="135" y="225" as="targetPoint" />
          </mxGeometry>
        </mxCell>
        <mxCell id="_5ELGUzq5DA-wfUolM43-54" value="TastingEntry" style="text;html=1;align=center;verticalAlign=middle;resizable=0;points=[];autosize=1;strokeColor=none;fillColor=none;" vertex="1" parent="1">
          <mxGeometry x="550" y="390" width="90" height="30" as="geometry" />
        </mxCell>
        <mxCell id="_5ELGUzq5DA-wfUolM43-55" value="date: date&lt;div&gt;user_id: int&lt;/div&gt;&lt;div&gt;rating: int&lt;/div&gt;&lt;div&gt;comments: text&lt;/div&gt;" style="whiteSpace=wrap;html=1;aspect=fixed;" vertex="1" parent="1">
          <mxGeometry x="530" y="390" width="130" height="130" as="geometry" />
        </mxCell>
        <mxCell id="_5ELGUzq5DA-wfUolM43-56" value="TastingEntry" style="text;html=1;align=center;verticalAlign=middle;resizable=0;points=[];autosize=1;strokeColor=none;fillColor=none;" vertex="1" parent="1">
          <mxGeometry x="550.05" y="390" width="90" height="30" as="geometry" />
        </mxCell>
        <mxCell id="_5ELGUzq5DA-wfUolM43-59" style="edgeStyle=orthogonalEdgeStyle;rounded=0;orthogonalLoop=1;jettySize=auto;html=1;entryX=0.186;entryY=-0.067;entryDx=0;entryDy=0;entryPerimeter=0;" edge="1" parent="1" source="_5ELGUzq5DA-wfUolM43-14" target="_5ELGUzq5DA-wfUolM43-36">
          <mxGeometry relative="1" as="geometry" />
        </mxCell>
        <mxCell id="_5ELGUzq5DA-wfUolM43-60" style="edgeStyle=orthogonalEdgeStyle;rounded=0;orthogonalLoop=1;jettySize=auto;html=1;entryX=0.377;entryY=-0.033;entryDx=0;entryDy=0;entryPerimeter=0;" edge="1" parent="1" source="_5ELGUzq5DA-wfUolM43-14" target="_5ELGUzq5DA-wfUolM43-56">
          <mxGeometry relative="1" as="geometry" />
        </mxCell>
        <mxCell id="_5ELGUzq5DA-wfUolM43-61" value="User" style="text;html=1;align=center;verticalAlign=middle;resizable=0;points=[];autosize=1;strokeColor=none;fillColor=none;" vertex="1" parent="1">
          <mxGeometry x="380" y="585" width="50" height="30" as="geometry" />
        </mxCell>
        <mxCell id="_5ELGUzq5DA-wfUolM43-65" style="edgeStyle=orthogonalEdgeStyle;rounded=0;orthogonalLoop=1;jettySize=auto;html=1;entryX=0.5;entryY=1;entryDx=0;entryDy=0;" edge="1" parent="1" source="_5ELGUzq5DA-wfUolM43-62" target="_5ELGUzq5DA-wfUolM43-35">
          <mxGeometry relative="1" as="geometry" />
        </mxCell>
        <mxCell id="_5ELGUzq5DA-wfUolM43-62" value="&lt;font style=&quot;font-size: 10px;&quot;&gt;username: varchar(50)&lt;/font&gt;&lt;div style=&quot;font-size: 11px;&quot;&gt;&lt;font style=&quot;font-size: 11px;&quot;&gt;password:varchar(255)&lt;/font&gt;&lt;/div&gt;&lt;div style=&quot;font-size: 11px;&quot;&gt;email: varchar(255)&lt;/div&gt;" style="whiteSpace=wrap;html=1;aspect=fixed;" vertex="1" parent="1">
          <mxGeometry x="350" y="575" width="115" height="115" as="geometry" />
        </mxCell>
        <mxCell id="_5ELGUzq5DA-wfUolM43-66" style="edgeStyle=orthogonalEdgeStyle;rounded=0;orthogonalLoop=1;jettySize=auto;html=1;entryX=0.5;entryY=1;entryDx=0;entryDy=0;" edge="1" parent="1" source="_5ELGUzq5DA-wfUolM43-63" target="_5ELGUzq5DA-wfUolM43-55">
          <mxGeometry relative="1" as="geometry" />
        </mxCell>
        <mxCell id="_5ELGUzq5DA-wfUolM43-63" value="User" style="text;html=1;align=center;verticalAlign=middle;resizable=0;points=[];autosize=1;strokeColor=none;fillColor=none;" vertex="1" parent="1">
          <mxGeometry x="379.95" y="575" width="50" height="30" as="geometry" />
        </mxCell>
        <mxCell id="_5ELGUzq5DA-wfUolM43-64" value="" style="endArrow=none;html=1;rounded=0;entryX=1;entryY=0.25;entryDx=0;entryDy=0;" edge="1" parent="1" target="_5ELGUzq5DA-wfUolM43-62">
          <mxGeometry width="50" height="50" relative="1" as="geometry">
            <mxPoint x="350" y="605" as="sourcePoint" />
            <mxPoint x="400" y="555" as="targetPoint" />
          </mxGeometry>
        </mxCell>
        <mxCell id="_5ELGUzq5DA-wfUolM43-68" value="Photo" style="text;html=1;align=center;verticalAlign=middle;resizable=0;points=[];autosize=1;strokeColor=none;fillColor=none;" vertex="1" parent="1">
          <mxGeometry x="110" y="605" width="50" height="30" as="geometry" />
        </mxCell>
        <mxCell id="_5ELGUzq5DA-wfUolM43-70" value="" style="endArrow=classic;startArrow=classic;html=1;rounded=0;entryX=0;entryY=0.5;entryDx=0;entryDy=0;exitX=1;exitY=0.5;exitDx=0;exitDy=0;" edge="1" parent="1" source="_5ELGUzq5DA-wfUolM43-48" target="_5ELGUzq5DA-wfUolM43-62">
          <mxGeometry width="50" height="50" relative="1" as="geometry">
            <mxPoint x="185" y="645" as="sourcePoint" />
            <mxPoint x="235" y="595" as="targetPoint" />
          </mxGeometry>
        </mxCell>
        <mxCell id="_5ELGUzq5DA-wfUolM43-72" value="" style="endArrow=classic;startArrow=classic;html=1;rounded=0;entryX=-0.013;entryY=0.458;entryDx=0;entryDy=0;entryPerimeter=0;" edge="1" parent="1" target="_5ELGUzq5DA-wfUolM43-55">
          <mxGeometry width="50" height="50" relative="1" as="geometry">
            <mxPoint x="480" y="460" as="sourcePoint" />
            <mxPoint x="530" y="410" as="targetPoint" />
          </mxGeometry>
        </mxCell>
        <mxCell id="_5ELGUzq5DA-wfUolM43-73" value="" style="endArrow=classic;html=1;rounded=0;entryX=1.016;entryY=0.426;entryDx=0;entryDy=0;entryPerimeter=0;" edge="1" parent="1" target="_5ELGUzq5DA-wfUolM43-22">
          <mxGeometry width="50" height="50" relative="1" as="geometry">
            <mxPoint x="330" y="460" as="sourcePoint" />
            <mxPoint x="380" y="410" as="targetPoint" />
          </mxGeometry>
        </mxCell>
      </root>
    </mxGraphModel>
  </diagram>
</mxfile>
